<svg xmlns="http://www.w3.org/2000/svg" viewBox="0 0 24 28" fill="#00D4B5">
  <!-- Top ray -->
  <rect x="10.5" y="0.5" width="3" height="6" rx="1.5"/>
  <!-- Top-left ray -->
  <rect x="2.8" y="2.8" width="3" height="5.5" rx="1.5" transform="rotate(-45 4.3 5.5)"/>
  <!-- Top-right ray -->
  <rect x="18.2" y="2.8" width="3" height="5.5" rx="1.5" transform="rotate(45 19.7 5.5)"/>
  <!-- Left ray -->
  <rect x="0.5" y="10.5" width="6" height="3" rx="1.5"/>
  <!-- Right ray -->
  <rect x="17.5" y="10.5" width="6" height="3" rx="1.5"/>
  <!-- Center circle -->
  <circle cx="12" cy="12" r="3.2"/>
  <!-- Bottom plane body -->
  <ellipse cx="12" cy="19" rx="2.2" ry="4"/>
  <!-- Wings -->
  <path d="M12 22c-4 0.5-6.5 1.5-8 2.5 2 1.5 5 2.5 8 2.8 3-0.3 6-1.3 8-2.8-1.5-1-4-2-8-2.5z"/>
</svg>
